<?xml version="1.0" encoding="UTF-8"?>
<svg width="24px" height="24px" viewBox="0 0 24 24" version="1.1" xmlns="http://www.w3.org/2000/svg">
    <g stroke="none" stroke-width="1" fill="none" fill-rule="evenodd">
        <path d="M12,2 C13.1,2 14,2.9 14,4 C14,5.1 13.1,6 12,6 C10.9,6 10,5.1 10,4 C10,2.9 10.9,2 12,2 Z M18,7 C19.1,7 20,7.9 20,9 C20,10.1 19.1,11 18,11 C16.9,11 16,10.1 16,9 C16,7.9 16.9,7 18,7 Z M6,7 C7.1,7 8,7.9 8,9 C8,10.1 7.1,11 6,11 C4.9,11 4,10.1 4,9 C4,7.9 4.9,7 6,7 Z M18,13 C20.2,13 22,14.8 22,17 C22,19.2 20.2,21 18,21 C15.8,21 14,19.2 14,17 C14,14.8 15.8,13 18,13 Z M6,13 C8.2,13 10,14.8 10,17 C10,19.2 8.2,21 6,21 C3.8,21 2,19.2 2,17 C2,14.8 3.8,13 6,13 Z" fill="#FF5252"></path>
    </g>
</svg>
