<?xml version="1.0" encoding="UTF-8"?>
<svg width="24px" height="24px" viewBox="0 0 24 24" version="1.1" xmlns="http://www.w3.org/2000/svg">
    <g stroke="none" stroke-width="1" fill="none" fill-rule="evenodd">
        <path d="M12,2 C8.5,2 5.5,5 5.5,8.5 C5.5,12 8.5,15 12,15 C15.5,15 18.5,12 18.5,8.5 C18.5,5 15.5,2 12,2 Z M12,13.5 C9.5,13.5 7,11 7,8.5 C7,6 9.5,3.5 12,3.5 C14.5,3.5 17,6 17,8.5 C17,11 14.5,13.5 12,13.5 Z M12,5.5 C10.5,5.5 9.5,6.5 9.5,8 C9.5,9.5 10.5,10.5 12,10.5 C13.5,10.5 14.5,9.5 14.5,8 C14.5,6.5 13.5,5.5 12,5.5 Z M5,16 C3.5,16 2,17.5 2,19 C2,20.5 3.5,22 5,22 C6.5,22 8,20.5 8,19 C8,17.5 6.5,16 5,16 Z M19,16 C17.5,16 16,17.5 16,19 C16,20.5 17.5,22 19,22 C20.5,22 22,20.5 22,19 C22,17.5 20.5,16 19,16 Z" fill="#3A7D44"></path>
    </g>
</svg>
