<?xml version="1.0" encoding="UTF-8"?>
<svg width="24px" height="24px" viewBox="0 0 24 24" version="1.1" xmlns="http://www.w3.org/2000/svg">
    <g stroke="none" stroke-width="1" fill="none" fill-rule="evenodd">
        <path d="M7,3 C5.5,3 4,4 4,6 C4,8 5.5,9 7,9 C8.5,9 10,8 10,6 C10,4 8.5,3 7,3 Z M17,3 C15.5,3 14,4 14,6 C14,8 15.5,9 17,9 C18.5,9 20,8 20,6 C20,4 18.5,3 17,3 Z M7,11 C4,11 2,14 2,17 C2,20 4,22 7,22 C10,22 12,20 12,17 C12,14 10,11 7,11 Z M17,11 C14,11 12,14 12,17 C12,20 14,22 17,22 C20,22 22,20 22,17 C22,14 20,11 17,11 Z" fill="#FFD700"></path>
    </g>
</svg>
