<?xml version="1.0" encoding="UTF-8"?>
<svg width="24px" height="24px" viewBox="0 0 24 24" version="1.1" xmlns="http://www.w3.org/2000/svg">
    <g stroke="none" stroke-width="1" fill="none" fill-rule="evenodd">
        <path d="M12,2 C7,2 3,4 3,7 L3,17 C3,18.1 3.9,19 5,19 L19,19 C20.1,19 21,18.1 21,17 L21,7 C21,4 17,2 12,2 Z M12,4 C16,4 19,5.5 19,7 C19,8.5 16,10 12,10 C8,10 5,8.5 5,7 C5,5.5 8,4 12,4 Z M5,9.5 C6.5,10.5 9,11 12,11 C15,11 17.5,10.5 19,9.5 L19,17 L5,17 L5,9.5 Z" fill="#D2B48C"></path>
    </g>
</svg>
