<?xml version="1.0" encoding="UTF-8"?>
<svg width="24px" height="24px" viewBox="0 0 24 24" version="1.1" xmlns="http://www.w3.org/2000/svg">
    <g stroke="none" stroke-width="1" fill="none" fill-rule="evenodd">
        <path d="M9,2 C7.5,2 6,3 6,5 L6,19 C6,20.5 7.5,22 9,22 C10.5,22 12,20.5 12,19 L12,5 C12,3 10.5,2 9,2 Z M9,4 C9.5,4 10,4.5 10,5 L10,19 C10,19.5 9.5,20 9,20 C8.5,20 8,19.5 8,19 L8,5 C8,4.5 8.5,4 9,4 Z M15,2 C13.5,2 12,3 12,5 L12,19 C12,20.5 13.5,22 15,22 C16.5,22 18,20.5 18,19 L18,5 C18,3 16.5,2 15,2 Z M15,4 C15.5,4 16,4.5 16,5 L16,19 C16,19.5 15.5,20 15,20 C14.5,20 14,19.5 14,19 L14,5 C14,4.5 14.5,4 15,4 Z" fill="#FF7043"></path>
    </g>
</svg>
