<?xml version="1.0" encoding="UTF-8"?>
<svg width="24px" height="24px" viewBox="0 0 24 24" version="1.1" xmlns="http://www.w3.org/2000/svg">
    <g stroke="none" stroke-width="1" fill="none" fill-rule="evenodd">
        <path d="M7,2 L17,2 L17,4 L19,4 L19,6 L17,6 L17,8 L19,8 L19,10 L17,10 L17,12 L19,12 L19,14 L17,14 L17,16 L19,16 L19,18 L17,18 L17,20 L7,20 L7,18 L5,18 L5,16 L7,16 L7,14 L5,14 L5,12 L7,12 L7,10 L5,10 L5,8 L7,8 L7,6 L5,6 L5,4 L7,4 L7,2 Z M9,4 L15,4 L15,18 L9,18 L9,4 Z" fill="#FF9800"></path>
    </g>
</svg>
