<?xml version="1.0" encoding="UTF-8"?>
<svg width="24px" height="24px" viewBox="0 0 24 24" version="1.1" xmlns="http://www.w3.org/2000/svg">
    <g stroke="none" stroke-width="1" fill="none" fill-rule="evenodd">
        <path d="M8,3 L16,3 C18.2,3 20,4.8 20,7 L20,17 C20,19.2 18.2,21 16,21 L8,21 C5.8,21 4,19.2 4,17 L4,7 C4,4.8 5.8,3 8,3 Z M8,5 C6.9,5 6,5.9 6,7 L6,17 C6,18.1 6.9,19 8,19 L16,19 C17.1,19 18,18.1 18,17 L18,7 C18,5.9 17.1,5 16,5 L8,5 Z M9,7 C9.55228475,7 10,7.44771525 10,8 C10,8.55228475 9.55228475,9 9,9 C8.44771525,9 8,8.55228475 8,8 C8,7.44771525 8.44771525,7 9,7 Z M15,7 C15.5522847,7 16,7.44771525 16,8 C16,8.55228475 15.5522847,9 15,9 C14.4477153,9 14,8.55228475 14,8 C14,7.44771525 14.4477153,7 15,7 Z M12,10 C13.1,10 14,10.9 14,12 L10,12 C10,10.9 10.9,10 12,10 Z" fill="#FFCC80"></path>
    </g>
</svg>
