<?xml version="1.0" encoding="UTF-8"?>
<svg width="24px" height="24px" viewBox="0 0 24 24" version="1.1" xmlns="http://www.w3.org/2000/svg">
    <g stroke="none" stroke-width="1" fill="none" fill-rule="evenodd">
        <path d="M4.5,6 C3.5,7 3,8.5 3,10 C3,11.5 3.5,13 4.5,14 L14,23.5 C15,24.5 16.5,24.5 17.5,23.5 L23.5,17.5 C24.5,16.5 24.5,15 23.5,14 L14,4.5 C13,3.5 11.5,3 10,3 C8.5,3 7,3.5 6,4.5 L4.5,6 Z M6,8.5 C5.5,9 5,9.5 5,10 C5,10.5 5.5,11 6,11.5 L12.5,18 C13,18.5 13.5,18.5 14,18 L18,14 C18.5,13.5 18.5,13 18,12.5 L11.5,6 C11,5.5 10.5,5 10,5 C9.5,5 9,5.5 8.5,6 L6,8.5 Z" fill="#4CAF50"></path>
    </g>
</svg>
