<?xml version="1.0" encoding="UTF-8"?>
<svg width="24px" height="24px" viewBox="0 0 24 24" version="1.1" xmlns="http://www.w3.org/2000/svg">
    <g stroke="none" stroke-width="1" fill="none" fill-rule="evenodd">
        <path d="M12,2 C9.8,2 8,3.8 8,6 L8,8 C5.8,8 4,9.8 4,12 L4,18 C4,20.2 5.8,22 8,22 L16,22 C18.2,22 20,20.2 20,18 L20,12 C20,9.8 18.2,8 16,8 L16,6 C16,3.8 14.2,2 12,2 Z M12,4 C13.1,4 14,4.9 14,6 L14,8 L10,8 L10,6 C10,4.9 10.9,4 12,4 Z M8,10 L16,10 C17.1,10 18,10.9 18,12 L18,18 C18,19.1 17.1,20 16,20 L8,20 C6.9,20 6,19.1 6,18 L6,12 C6,10.9 6.9,10 8,10 Z" fill="#F5F5F5"></path>
    </g>
</svg>
