<?xml version="1.0" encoding="UTF-8"?>
<svg width="24px" height="24px" viewBox="0 0 24 24" version="1.1" xmlns="http://www.w3.org/2000/svg">
    <g stroke="none" stroke-width="1" fill="none" fill-rule="evenodd">
        <path d="M4,2 L20,2 L20,4 L4,4 L4,2 Z M4,6 L20,6 L20,8 L4,8 L4,6 Z M9,10 L15,10 C17.2,10 19,11.8 19,14 L19,20 C19,21.1 18.1,22 17,22 L7,22 C5.9,22 5,21.1 5,20 L5,14 C5,11.8 6.8,10 9,10 Z M9,12 C7.9,12 7,12.9 7,14 L7,20 L17,20 L17,14 C17,12.9 16.1,12 15,12 L9,12 Z" fill="#FFC107"></path>
    </g>
</svg>
