<?xml version="1.0" encoding="UTF-8"?>
<svg width="24px" height="24px" viewBox="0 0 24 24" version="1.1" xmlns="http://www.w3.org/2000/svg">
    <g stroke="none" stroke-width="1" fill="none" fill-rule="evenodd">
        <path d="M7,3 L17,3 C19.2,3 21,4.8 21,7 L21,17 C21,19.2 19.2,21 17,21 L7,21 C4.8,21 3,19.2 3,17 L3,7 C3,4.8 4.8,3 7,3 Z M7,5 C5.9,5 5,5.9 5,7 L5,17 C5,18.1 5.9,19 7,19 L17,19 C18.1,19 19,18.1 19,17 L19,7 C19,5.9 18.1,5 17,5 L7,5 Z M8,7 L16,7 L16,9 L8,9 L8,7 Z M8,11 L16,11 L16,13 L8,13 L8,11 Z M8,15 L16,15 L16,17 L8,17 L8,15 Z" fill="#EEEEEE"></path>
    </g>
</svg>
