<?xml version="1.0" encoding="UTF-8"?>
<svg width="24px" height="24px" viewBox="0 0 24 24" version="1.1" xmlns="http://www.w3.org/2000/svg">
    <g stroke="none" stroke-width="1" fill="none" fill-rule="evenodd">
        <path d="M12,2 C7.6,2 4,3.8 4,6 L4,18 C4,20.2 7.6,22 12,22 C16.4,22 20,20.2 20,18 L20,6 C20,3.8 16.4,2 12,2 Z M12,4 C15.3,4 18,5.3 18,6 C18,6.7 15.3,8 12,8 C8.7,8 6,6.7 6,6 C6,5.3 8.7,4 12,4 Z M6,8.2 C7.6,9.2 9.7,10 12,10 C14.3,10 16.4,9.2 18,8.2 L18,18 C18,18.7 15.3,20 12,20 C8.7,20 6,18.7 6,18 L6,8.2 Z" fill="#ECEFF1"></path>
    </g>
</svg>
