<?xml version="1.0" encoding="UTF-8"?>
<svg width="24px" height="24px" viewBox="0 0 24 24" version="1.1" xmlns="http://www.w3.org/2000/svg">
    <g stroke="none" stroke-width="1" fill="none" fill-rule="evenodd">
        <path d="M12,2 C13.1,2 14,2.9 14,4 C14,5.1 13.1,6 12,6 C10.9,6 10,5.1 10,4 C10,2.9 10.9,2 12,2 Z M18,7 C21.3,7 24,9.7 24,13 C24,16.3 21.3,19 18,19 C14.7,19 12,16.3 12,13 C12,9.7 14.7,7 18,7 Z M6,7 C9.3,7 12,9.7 12,13 C12,16.3 9.3,19 6,19 C2.7,19 0,16.3 0,13 C0,9.7 2.7,7 6,7 Z" fill="#E53935"></path>
    </g>
</svg>
